<svg xmlns="http://www.w3.org/2000/svg" xmlns:xlink="http://www.w3.org/1999/xlink" viewBox="0 0 7000.27 6244.56"><defs><style>.cls-1{fill:url(#linear-gradient);}.cls-2{fill:url(#linear-gradient-2);}.cls-3{fill:url(#linear-gradient-3);}.cls-4{fill:url(#linear-gradient-4);}.cls-5{fill:url(#linear-gradient-5);}.cls-6{fill:url(#linear-gradient-6);}.cls-7{fill:url(#linear-gradient-7);}.cls-8{fill:url(#linear-gradient-8);}.cls-9{fill:url(#linear-gradient-9);}.cls-10{fill:url(#linear-gradient-10);}.cls-11{fill:url(#linear-gradient-11);}.cls-12{fill:url(#linear-gradient-12);}.cls-13{fill:url(#linear-gradient-13);}.cls-14{fill:url(#linear-gradient-14);}.cls-15{fill:url(#linear-gradient-15);}.cls-16{fill:url(#linear-gradient-16);}.cls-17{fill:url(#linear-gradient-17);}.cls-18{fill:url(#linear-gradient-18);}.cls-19{fill:url(#linear-gradient-19);}.cls-20{fill:url(#linear-gradient-20);}.cls-21{fill:url(#linear-gradient-21);}.cls-22{fill:url(#linear-gradient-22);}.cls-23{fill:url(#linear-gradient-23);}.cls-24{fill:url(#linear-gradient-24);}.cls-25{fill:url(#linear-gradient-25);}.cls-26{fill:url(#linear-gradient-26);}.cls-27{fill:url(#linear-gradient-27);}.cls-28{fill:url(#linear-gradient-28);}.cls-29{fill:url(#linear-gradient-29);}.cls-30{fill:url(#linear-gradient-30);}.cls-31{fill:url(#linear-gradient-31);}.cls-32{fill:url(#linear-gradient-32);}.cls-33{fill:url(#linear-gradient-33);}.cls-34{fill:url(#linear-gradient-34);}.cls-35{fill:url(#linear-gradient-35);}.cls-36{fill:url(#linear-gradient-36);}.cls-37{fill:url(#linear-gradient-37);}.cls-38{fill:url(#linear-gradient-38);}.cls-39{fill:url(#linear-gradient-39);}.cls-40{fill:url(#linear-gradient-40);}.cls-41{fill:url(#linear-gradient-41);}.cls-42{fill:url(#linear-gradient-42);}.cls-43{fill:url(#linear-gradient-43);}.cls-44{fill:url(#linear-gradient-44);}.cls-45{fill:url(#linear-gradient-45);}.cls-46{fill:url(#linear-gradient-46);}.cls-47{fill:url(#linear-gradient-47);}.cls-48{fill:url(#linear-gradient-48);}.cls-49{fill:url(#linear-gradient-49);}.cls-50{fill:url(#linear-gradient-50);}.cls-51{fill:url(#linear-gradient-51);}.cls-52{fill:url(#linear-gradient-52);}.cls-53{fill:url(#linear-gradient-53);}.cls-54{fill:url(#linear-gradient-54);}.cls-55{fill:url(#linear-gradient-55);}.cls-56{fill:url(#linear-gradient-56);}.cls-57{fill:url(#linear-gradient-57);}.cls-58{fill:url(#linear-gradient-58);}.cls-59{fill:url(#linear-gradient-59);}.cls-60{fill:url(#linear-gradient-60);}.cls-61{fill:url(#linear-gradient-61);}.cls-62{fill:url(#linear-gradient-62);}.cls-63{fill:url(#linear-gradient-63);}.cls-64{fill:url(#linear-gradient-64);}.cls-65{fill:url(#linear-gradient-65);}.cls-66{fill:url(#linear-gradient-66);}.cls-67{fill:url(#linear-gradient-67);}.cls-68{fill:url(#linear-gradient-68);}.cls-69{fill:url(#linear-gradient-69);}.cls-70{fill:url(#linear-gradient-70);}.cls-71{fill:url(#linear-gradient-71);}.cls-72{fill:url(#linear-gradient-72);}.cls-73{fill:url(#linear-gradient-73);}.cls-74{fill:url(#linear-gradient-74);}.cls-75{fill:url(#linear-gradient-75);}.cls-76{fill:url(#linear-gradient-76);}.cls-77{fill:url(#linear-gradient-77);}.cls-78{fill:url(#linear-gradient-78);}.cls-79{fill:url(#linear-gradient-79);}.cls-80{fill:url(#linear-gradient-80);}.cls-81{fill:url(#linear-gradient-81);}.cls-82{fill:url(#linear-gradient-82);}.cls-83{fill:url(#linear-gradient-83);}.cls-84{fill:url(#linear-gradient-84);}.cls-85{fill:url(#linear-gradient-85);}.cls-86{fill:url(#linear-gradient-86);}.cls-87{fill:url(#linear-gradient-87);}.cls-88{fill:url(#linear-gradient-88);}.cls-89{fill:url(#linear-gradient-89);}.cls-90{fill:url(#linear-gradient-90);}</style><linearGradient id="linear-gradient" x1="-1994.49" y1="2517.65" x2="-4398.86" y2="4922.01" gradientTransform="translate(1987.73 -2841.83)" gradientUnits="userSpaceOnUse"><stop offset="0" stop-color="#08eeeb"/><stop offset="1" stop-color="#9b04c7"/></linearGradient><linearGradient id="linear-gradient-2" x1="-1745.96" y1="2766.18" x2="-4150.32" y2="5170.55" gradientTransform="translate(1678.48 -2884.71) rotate(-0.01)" xlink:href="#linear-gradient"/><linearGradient id="linear-gradient-3" x1="-1426.8" y1="3085.34" x2="-3831.16" y2="5489.71" gradientTransform="translate(1170.1 -3209.16) rotate(-0.01)" xlink:href="#linear-gradient"/><linearGradient id="linear-gradient-4" x1="-1350.89" y1="3161.25" x2="-3755.25" y2="5565.61" gradientTransform="translate(1219.89 -2876.1) rotate(0.01)" xlink:href="#linear-gradient"/><linearGradient id="linear-gradient-5" x1="-1462.3" y1="3049.84" x2="-3866.67" y2="5454.2" gradientTransform="matrix(1, 0, 0, 1, 1336.67, -2909.15)" xlink:href="#linear-gradient"/><linearGradient id="linear-gradient-6" x1="-1522.44" y1="2989.69" x2="-3926.81" y2="5394.06" gradientTransform="translate(1284.56 -3203.4) rotate(-0.01)" xlink:href="#linear-gradient"/><linearGradient id="linear-gradient-7" x1="-1504.91" y1="3007.24" x2="-3909.27" y2="5411.6" gradientTransform="translate(1416.41 -2835.61) rotate(-0.01)" xlink:href="#linear-gradient"/><linearGradient id="linear-gradient-8" x1="-1214.01" y1="3298.13" x2="-3618.38" y2="5702.49" gradientTransform="translate(1084.33 -2815.32)" xlink:href="#linear-gradient"/><linearGradient id="linear-gradient-9" x1="-1149.56" y1="3362.58" x2="-3553.92" y2="5766.95" gradientTransform="translate(1134.45 -2512.86) rotate(0.01)" xlink:href="#linear-gradient"/><linearGradient id="linear-gradient-10" x1="-1081.64" y1="3430.5" x2="-3486" y2="5834.87" gradientTransform="translate(1113.3 -2371.07)" xlink:href="#linear-gradient"/><linearGradient id="linear-gradient-11" x1="-1025.42" y1="3486.72" x2="-3429.78" y2="5891.08" gradientTransform="translate(1112.01 -2214.11) rotate(-0.01)" xlink:href="#linear-gradient"/><linearGradient id="linear-gradient-12" x1="-736.07" y1="3776.07" x2="-3140.43" y2="6180.43" gradientTransform="translate(891.79 -1928.33)" xlink:href="#linear-gradient"/><linearGradient id="linear-gradient-13" x1="-533.03" y1="3979.11" x2="-2937.4" y2="6383.47" gradientTransform="translate(556.03 -2164.66)" xlink:href="#linear-gradient"/><linearGradient id="linear-gradient-14" x1="-902.59" y1="3609.55" x2="-3306.96" y2="6013.91" gradientTransform="translate(971.38 -2207.74)" xlink:href="#linear-gradient"/><linearGradient id="linear-gradient-15" x1="-643.78" y1="3868.36" x2="-3048.14" y2="6272.73" gradientTransform="translate(856.76 -1751.87)" xlink:href="#linear-gradient"/><linearGradient id="linear-gradient-16" x1="-383.27" y1="4128.87" x2="-2787.63" y2="6533.24" gradientTransform="translate(413.1 -2084.9) rotate(-0.01)" xlink:href="#linear-gradient"/><linearGradient id="linear-gradient-17" x1="-570.02" y1="3942.12" x2="-2974.39" y2="6346.48" gradientTransform="translate(835.24 -1596.16) rotate(0.01)" xlink:href="#linear-gradient"/><linearGradient id="linear-gradient-18" x1="-339.58" y1="4172.56" x2="-2743.94" y2="6576.92" gradientTransform="translate(592.18 -1530.24)" xlink:href="#linear-gradient"/><linearGradient id="linear-gradient-19" x1="-184.18" y1="4327.96" x2="-2588.54" y2="6732.33" gradientTransform="translate(493.31 -1328.44) rotate(-0.01)" xlink:href="#linear-gradient"/><linearGradient id="linear-gradient-20" x1="-214.7" y1="4297.44" x2="-2619.07" y2="6701.8" gradientTransform="translate(701.48 -914.28) rotate(0.01)" xlink:href="#linear-gradient"/><linearGradient id="linear-gradient-21" x1="21.32" y1="4533.46" x2="-2383.04" y2="6937.82" gradientTransform="translate(381.17 -1019.85) rotate(0.01)" xlink:href="#linear-gradient"/><linearGradient id="linear-gradient-22" x1="-66.73" y1="4445.42" x2="-2471.09" y2="6849.78" gradientTransform="translate(614.27 -705.02)" xlink:href="#linear-gradient"/><linearGradient id="linear-gradient-23" x1="101.45" y1="4613.58" x2="-2302.92" y2="7017.95" gradientTransform="translate(515.34 -467.13) rotate(-0.01)" xlink:href="#linear-gradient"/><linearGradient id="linear-gradient-24" x1="-398.43" y1="4113.71" x2="-2802.79" y2="6518.07" gradientTransform="translate(852.71 -1068.64) rotate(0.01)" xlink:href="#linear-gradient"/><linearGradient id="linear-gradient-25" x1="-1287.98" y1="3224.16" x2="-3692.34" y2="5628.52" gradientTransform="translate(1215.09 -2708.84)" xlink:href="#linear-gradient"/><linearGradient id="linear-gradient-26" x1="-1156.81" y1="3355.33" x2="-3561.17" y2="5759.7" gradientTransform="translate(1105.69 -2601.93)" xlink:href="#linear-gradient"/><linearGradient id="linear-gradient-27" x1="-922.44" y1="3589.7" x2="-3326.8" y2="5994.06" gradientTransform="translate(851.86 -2551.85)" xlink:href="#linear-gradient"/><linearGradient id="linear-gradient-28" x1="-1004.96" y1="3507.18" x2="-3409.32" y2="5911.55" gradientTransform="translate(1049.47 -2308.52)" xlink:href="#linear-gradient"/><linearGradient id="linear-gradient-29" x1="-753.78" y1="3758.36" x2="-3158.14" y2="6162.72" gradientTransform="translate(775.86 -2257.22) rotate(-0.01)" xlink:href="#linear-gradient"/><linearGradient id="linear-gradient-30" x1="-657.74" y1="3854.4" x2="-3062.11" y2="6258.76" gradientTransform="translate(678.75 -2221.11)" xlink:href="#linear-gradient"/><linearGradient id="linear-gradient-31" x1="64.96" y1="4577.1" x2="-2339.4" y2="6981.46" gradientTransform="translate(580.45 -413.3) rotate(-0.01)" xlink:href="#linear-gradient"/><linearGradient id="linear-gradient-32" x1="-1441.7" y1="3070.44" x2="-3846.06" y2="5474.8" gradientTransform="matrix(1, 0, 0, 1, 1156.1, -3286.15)" xlink:href="#linear-gradient"/><linearGradient id="linear-gradient-33" x1="-662.17" y1="3849.97" x2="-3066.53" y2="6254.33" gradientTransform="translate(773.19 -2004.54) rotate(-0.01)" xlink:href="#linear-gradient"/><linearGradient id="linear-gradient-34" x1="-692.41" y1="3819.73" x2="-3096.77" y2="6224.09" gradientTransform="translate(885.24 -1820.65)" xlink:href="#linear-gradient"/><linearGradient id="linear-gradient-35" x1="-572.82" y1="3939.32" x2="-2977.18" y2="6343.68" gradientTransform="translate(796.16 -1697.46)" xlink:href="#linear-gradient"/><linearGradient id="linear-gradient-36" x1="-424.85" y1="4087.29" x2="-2829.22" y2="6491.65" gradientTransform="translate(642.65 -1650.72) rotate(0.01)" xlink:href="#linear-gradient"/><linearGradient id="linear-gradient-37" x1="-366.74" y1="4145.4" x2="-2771.11" y2="6549.76" gradientTransform="matrix(1, 0, 0, 1, 601.18, -1586.49)" xlink:href="#linear-gradient"/><linearGradient id="linear-gradient-38" x1="-490.23" y1="4021.91" x2="-2894.6" y2="6426.27" gradientTransform="translate(839 -1360.33)" xlink:href="#linear-gradient"/><linearGradient id="linear-gradient-39" x1="-595.04" y1="3917.1" x2="-2999.41" y2="6321.46" gradientTransform="translate(1045.44 -1157.51) rotate(-0.01)" xlink:href="#linear-gradient"/><linearGradient id="linear-gradient-40" x1="-311.68" y1="4200.45" x2="-2716.05" y2="6604.82" gradientTransform="translate(624.51 -1372.25) rotate(-0.01)" xlink:href="#linear-gradient"/><linearGradient id="linear-gradient-41" x1="-141.37" y1="4370.77" x2="-2545.73" y2="6775.14" gradientTransform="translate(456.52 -1298.34) rotate(0.01)" xlink:href="#linear-gradient"/><linearGradient id="linear-gradient-42" x1="-247.48" y1="4264.66" x2="-2651.84" y2="6669.02" gradientTransform="translate(659.82 -1105.3) rotate(-0.01)" xlink:href="#linear-gradient"/><linearGradient id="linear-gradient-43" x1="-116.09" y1="4396.05" x2="-2520.46" y2="6800.41" gradientTransform="translate(547.15 -1005.64) rotate(-0.01)" xlink:href="#linear-gradient"/><linearGradient id="linear-gradient-44" x1="-1401.85" y1="3110.29" x2="-3806.21" y2="5514.66" gradientTransform="translate(1064.97 -3393.33)" xlink:href="#linear-gradient"/><linearGradient id="linear-gradient-45" x1="-196.03" y1="4316.11" x2="-2600.39" y2="6720.48" gradientTransform="matrix(1, 0, 0, 1, 719.12, -817.61)" xlink:href="#linear-gradient"/><linearGradient id="linear-gradient-46" x1="-8.28" y1="4503.86" x2="-2412.64" y2="6908.23" gradientTransform="translate(517.11 -775.47) rotate(0.01)" xlink:href="#linear-gradient"/><linearGradient id="linear-gradient-47" x1="64.78" y1="4576.92" x2="-2339.58" y2="6981.28" gradientTransform="translate(462.46 -698.49) rotate(-0.01)" xlink:href="#linear-gradient"/><linearGradient id="linear-gradient-48" x1="-65.99" y1="4446.15" x2="-2470.36" y2="6850.51" gradientTransform="translate(738.74 -402.58)" xlink:href="#linear-gradient"/><linearGradient id="linear-gradient-49" x1="-962.72" y1="3549.42" x2="-3367.08" y2="5953.78" gradientTransform="translate(789.59 -2816.25)" xlink:href="#linear-gradient"/><linearGradient id="linear-gradient-50" x1="-2321.19" y1="2190.94" x2="-4725.56" y2="4595.31" gradientTransform="translate(2509.84 -2505.64)" xlink:href="#linear-gradient"/><linearGradient id="linear-gradient-51" x1="-1557.92" y1="2954.23" x2="-3962.28" y2="5358.6" gradientTransform="translate(1609.91 -2519.14)" xlink:href="#linear-gradient"/><linearGradient id="linear-gradient-52" x1="-1708.03" y1="2804.11" x2="-4112.4" y2="5208.48" gradientTransform="matrix(1, 0, 0, 1, 1941.75, -2142.16)" xlink:href="#linear-gradient"/><linearGradient id="linear-gradient-53" x1="-1121.33" y1="3390.81" x2="-3525.7" y2="5795.18" gradientTransform="translate(1232.42 -2196.3)" xlink:href="#linear-gradient"/><linearGradient id="linear-gradient-54" x1="-1345.13" y1="3167.01" x2="-3749.5" y2="5571.38" gradientTransform="matrix(1, 0, 0, 1, 1668.12, -1776.26)" xlink:href="#linear-gradient"/><linearGradient id="linear-gradient-55" x1="-979.48" y1="3532.66" x2="-3383.85" y2="5937.03" gradientTransform="translate(1270.81 -1701.21)" xlink:href="#linear-gradient"/><linearGradient id="linear-gradient-56" x1="-982.23" y1="3529.91" x2="-3386.6" y2="5934.28" gradientTransform="translate(1394.77 -1410.29)" xlink:href="#linear-gradient"/><linearGradient id="linear-gradient-57" x1="-1206.03" y1="3306.11" x2="-3610.4" y2="5710.48" gradientTransform="translate(1831.06 -989.97)" xlink:href="#linear-gradient"/><linearGradient id="linear-gradient-58" x1="-914.06" y1="3598.08" x2="-3318.43" y2="6002.45" gradientTransform="translate(1537.95 -871.79)" xlink:href="#linear-gradient"/><linearGradient id="linear-gradient-59" x1="-320.69" y1="4191.45" x2="-2725.06" y2="6595.82" gradientTransform="translate(825.57 -913.99)" xlink:href="#linear-gradient"/><linearGradient id="linear-gradient-60" x1="-551.16" y1="3960.98" x2="-2955.53" y2="6365.35" gradientTransform="translate(1264.1 -505.93)" xlink:href="#linear-gradient"/><linearGradient id="linear-gradient-61" x1="-553.91" y1="3958.23" x2="-2958.28" y2="6362.6" gradientTransform="translate(1387.81 -215.08)" xlink:href="#linear-gradient"/><linearGradient id="linear-gradient-62" x1="-1902.36" y1="2609.78" x2="-4306.73" y2="5014.15" gradientTransform="translate(1787.99 -3063.08)" xlink:href="#linear-gradient"/><linearGradient id="linear-gradient-63" x1="7753.11" y1="3810.46" x2="5348.74" y2="6214.83" gradientTransform="matrix(1, 0, 0, 1, -6076.68, -5734.27)" xlink:href="#linear-gradient"/><linearGradient id="linear-gradient-64" x1="7549.19" y1="3606.54" x2="5144.82" y2="6010.91" gradientTransform="matrix(1, 0, 0, 1, -6048.71, -5169.09)" xlink:href="#linear-gradient"/><linearGradient id="linear-gradient-65" x1="7156.18" y1="3213.53" x2="4751.81" y2="5617.9" gradientTransform="translate(-6130.41 -4023.42)" xlink:href="#linear-gradient"/><linearGradient id="linear-gradient-66" x1="7556.54" y1="3613.88" x2="5152.17" y2="6018.25" gradientTransform="translate(-5406.02 -5455.85)" xlink:href="#linear-gradient"/><linearGradient id="linear-gradient-67" x1="7331.52" y1="3388.87" x2="4927.15" y2="5793.24" gradientTransform="translate(-5571.37 -4751.11)" xlink:href="#linear-gradient"/><linearGradient id="linear-gradient-68" x1="7112.14" y1="3169.5" x2="4707.77" y2="5573.87" gradientTransform="translate(-5480.43 -4168.3)" xlink:href="#linear-gradient"/><linearGradient id="linear-gradient-69" x1="6830.39" y1="2887.75" x2="4426.02" y2="5292.12" gradientTransform="translate(-5641.98 -3304.3)" xlink:href="#linear-gradient"/><linearGradient id="linear-gradient-70" x1="6911.58" y1="2968.93" x2="4507.21" y2="5373.3" gradientTransform="translate(-5071.98 -3770.02)" xlink:href="#linear-gradient"/><linearGradient id="linear-gradient-71" x1="7136.63" y1="3193.98" x2="4732.26" y2="5598.35" gradientTransform="translate(-4511.19 -4638.69)" xlink:href="#linear-gradient"/><linearGradient id="linear-gradient-72" x1="6754.11" y1="2811.45" x2="4349.74" y2="5215.82" gradientTransform="translate(-4652.34 -3498.46)" xlink:href="#linear-gradient"/><linearGradient id="linear-gradient-73" x1="6690.54" y1="2747.9" x2="4286.17" y2="5152.27" gradientTransform="matrix(1, 0, 0, 1, -4435.03, -3408.82)" xlink:href="#linear-gradient"/><linearGradient id="linear-gradient-74" x1="7032.33" y1="3089.69" x2="4627.96" y2="5494.06" gradientTransform="translate(-3616.31 -4714.53)" xlink:href="#linear-gradient"/><linearGradient id="linear-gradient-75" x1="6643.48" y1="2700.83" x2="4239.11" y2="5105.19" gradientTransform="translate(-4008.47 -3452.11)" xlink:href="#linear-gradient"/><linearGradient id="linear-gradient-76" x1="5989.89" y1="2047.25" x2="3585.52" y2="4451.62" gradientTransform="translate(-1776.98 -2527.94)" xlink:href="#linear-gradient"/><linearGradient id="linear-gradient-77" x1="6646.23" y1="2703.58" x2="4241.86" y2="5107.95" gradientTransform="translate(-3125.92 -3825.59)" xlink:href="#linear-gradient"/><linearGradient id="linear-gradient-78" x1="6839.37" y1="2896.73" x2="4435" y2="5301.1" gradientTransform="matrix(1, 0, 0, 1, -2558.39, -4606.97)" xlink:href="#linear-gradient"/><linearGradient id="linear-gradient-79" x1="6460.59" y1="2517.93" x2="4056.22" y2="4922.3" gradientTransform="translate(-2810.88 -3430.93)" xlink:href="#linear-gradient"/><linearGradient id="linear-gradient-80" x1="6596.88" y1="2654.25" x2="4192.51" y2="5058.62" gradientTransform="translate(-2426.8 -3975.63)" xlink:href="#linear-gradient"/><linearGradient id="linear-gradient-81" x1="6408.44" y1="2465.79" x2="4004.07" y2="4870.16" gradientTransform="translate(-2313.68 -3489.53)" xlink:href="#linear-gradient"/><linearGradient id="linear-gradient-82" x1="6476.06" y1="2533.41" x2="4071.69" y2="4937.78" gradientTransform="translate(-1881.76 -3859.64)" xlink:href="#linear-gradient"/><linearGradient id="linear-gradient-83" x1="6217.69" y1="2275.03" x2="3813.32" y2="4679.4" gradientTransform="translate(-1981.2 -3087.66)" xlink:href="#linear-gradient"/><linearGradient id="linear-gradient-84" x1="6079.36" y1="2136.7" x2="3674.99" y2="4541.07" gradientTransform="translate(-1806.48 -2768.75)" xlink:href="#linear-gradient"/><linearGradient id="linear-gradient-85" x1="6000.23" y1="2057.6" x2="3595.86" y2="4461.97" gradientTransform="translate(-1367.1 -2727)" xlink:href="#linear-gradient"/><linearGradient id="linear-gradient-86" x1="6075.87" y1="2133.22" x2="3671.51" y2="4537.59" gradientTransform="matrix(1, 0, 0, 1, -1062.24, -3067.19)" xlink:href="#linear-gradient"/><linearGradient id="linear-gradient-87" x1="6130.82" y1="2188.18" x2="3726.45" y2="4592.55" gradientTransform="matrix(1, 0, 0, 1, -537.86, -3439.8)" xlink:href="#linear-gradient"/><linearGradient id="linear-gradient-88" x1="5661.92" y1="1719.26" x2="3257.55" y2="4123.63" gradientTransform="translate(-317.19 -2204.97)" xlink:href="#linear-gradient"/><linearGradient id="linear-gradient-89" x1="5909.67" y1="1967.04" x2="3505.3" y2="4371.41" gradientTransform="translate(-610.82 -2784.11)" xlink:href="#linear-gradient"/><linearGradient id="linear-gradient-90" x1="6134.83" y1="2192.17" x2="3730.46" y2="4596.54" gradientTransform="matrix(1, 0, 0, 1, -5.3, -3671.74)" xlink:href="#linear-gradient"/></defs><title>line</title><g id="Layer_2" data-name="Layer 2"><g id="Layer_1-2" data-name="Layer 1"><rect class="cls-1" x="-1074.32" y="-878.95" width="8.16" height="3236.46" transform="translate(4077.94 1843.19) rotate(45)"/><rect class="cls-2" x="-1278.81" y="-1270" width="5.65" height="4721.54" transform="translate(4266.2 2091.81) rotate(45.01)"/><rect class="cls-3" x="-1924.59" y="-818.65" width="5.65" height="4721.54" transform="translate(4396.19 2680.73) rotate(45.01)"/><rect class="cls-4" x="-1498.97" y="-711.3" width="5.65" height="4721.54" transform="translate(4596.78 2410.69) rotate(44.99)"/><rect class="cls-5" x="-1480.41" y="-868.86" width="5.65" height="4721.54" transform="translate(4490.82 2351.45) rotate(44.99)"/><rect class="cls-6" x="-1860.41" y="-953.91" width="5.65" height="4721.54" transform="translate(4319.34 2595.71) rotate(45.01)"/><rect class="cls-7" x="-1350.66" y="-929.11" width="5.65" height="4721.54" transform="translate(4486.23 2242.47) rotate(45.01)"/><rect class="cls-8" x="-1492.76" y="-517.73" width="5.65" height="4721.54" transform="translate(4735.49 2463.24) rotate(45)"/><rect class="cls-9" x="-1103.09" y="-426.58" width="5.65" height="4721.54" transform="translate(4914.02 2214.19) rotate(44.99)"/><rect class="cls-10" x="-942.07" y="-330.52" width="5.65" height="4721.54" transform="translate(5029.15 2128.65) rotate(45)"/><rect class="cls-11" x="-752.7" y="-251.02" width="5.65" height="4721.54" transform="translate(5140.95 2018.29) rotate(45.01)"/><rect class="cls-12" x="-518.34" y="158.18" width="5.65" height="4721.54" transform="translate(5498.83 1972.19) rotate(45)"/><rect class="cls-13" x="-971.49" y="445.31" width="5.65" height="4721.54" transform="translate(5569.14 2376.72) rotate(45)"/><rect class="cls-14" x="-816.1" y="-77.32" width="5.65" height="4721.54" transform="translate(5245.03 2113.63) rotate(45)"/><rect class="cls-15" x="-322.85" y="288.7" width="5.65" height="4721.54" transform="translate(5648.38 1872.19) rotate(45)"/><rect class="cls-16" x="-946.21" y="657.11" width="5.65" height="4721.54" transform="translate(5726.47 2421.19) rotate(45.01)"/><rect class="cls-17" x="-145.98" y="393" width="5.65" height="4721.54" transform="translate(5773.75 1777.47) rotate(44.99)"/><rect class="cls-18" x="-187.6" y="718.89" width="5.65" height="4721.54" transform="translate(5992.18 1902.55) rotate(45)"/><rect class="cls-19" x="6.8" y="938.66" width="5.65" height="4721.54" transform="translate(6204.73 1829.66) rotate(45.01)"/><rect class="cls-20" x="610.32" y="895.49" width="5.65" height="4721.54" transform="translate(6350.46 1389.85) rotate(44.99)"/><rect class="cls-21" x="322.78" y="1229.28" width="5.65" height="4721.54" transform="translate(6502.33 1690.94) rotate(44.99)"/><rect class="cls-22" x="819.59" y="1104.76" width="5.65" height="4721.54" transform="translate(6560.08 1303.4) rotate(45)"/><rect class="cls-23" x="1057.42" y="1342.59" width="5.65" height="4721.54" transform="translate(6798.24 1205.08) rotate(45.01)"/><rect class="cls-24" x="499.61" y="635.67" width="5.65" height="4721.54" transform="translate(6134.37 1392.07) rotate(44.99)"/><rect class="cls-25" x="-1298.85" y="-622.33" width="5.65" height="4721.54" transform="translate(4718.32 2295.49) rotate(45)"/><rect class="cls-26" x="-1224.5" y="-436.83" width="5.65" height="4721.54" transform="translate(4871.27 2297.25) rotate(45)"/><rect class="cls-27" x="-1290.96" y="-105.39" width="5.65" height="4721.54" transform="translate(5086.16 2441.32) rotate(45)"/><rect class="cls-28" x="-898.6" y="-222.08" width="5.65" height="4721.54" transform="translate(5118.54 2129.62) rotate(45)"/><rect class="cls-29" x="-972.81" y="133.13" width="5.65" height="4721.54" transform="translate(5348.13 2286.49) rotate(45.01)"/><rect class="cls-30" x="-978.27" y="268.95" width="5.65" height="4721.54" transform="translate(5442.44 2329.86) rotate(45)"/><rect class="cls-31" x="1154.94" y="1290.99" width="5.65" height="4721.54" transform="translate(6790.28 1120.98) rotate(45.01)"/><rect class="cls-32" x="-2025.29" y="-839.72" width="5.65" height="4721.54" transform="translate(4351.84 2745.46) rotate(45)"/><rect class="cls-33" x="-669.17" y="262.69" width="5.65" height="4721.54" transform="translate(5528.7 2109.72) rotate(45.01)"/><rect class="cls-34" x="-391.62" y="219.92" width="5.65" height="4721.54" transform="translate(5579.6 1900.68) rotate(45)"/><rect class="cls-35" x="-287.47" y="389.05" width="5.65" height="4721.54" transform="translate(5729.7 1876.56) rotate(45)"/><rect class="cls-36" x="-308.19" y="598.3" width="5.65" height="4721.54" transform="translate(5871.38 1952.24) rotate(44.99)"/><rect class="cls-37" x="-251.38" y="680.48" width="5.65" height="4721.54" transform="translate(5946.12 1936.14) rotate(44.99)"/><rect class="cls-38" x="140.94" y="505.84" width="5.65" height="4721.54" transform="translate(5937.79 1607.87) rotate(45)"/><rect class="cls-39" x="489.25" y="357.62" width="5.65" height="4721.54" transform="translate(5935.23 1318.31) rotate(45.01)"/><rect class="cls-40" x="19.57" y="758.34" width="5.65" height="4721.54" transform="translate(6080.98 1767.84) rotate(45.01)"/><rect class="cls-41" x="24.17" y="999.21" width="5.65" height="4721.54" transform="translate(6252.15 1834.64) rotate(44.99)"/><rect class="cls-42" x="359.45" y="849.14" width="5.65" height="4721.54" transform="translate(6244.8 1554.11) rotate(45.01)"/><rect class="cls-43" x="423.4" y="1034.95" width="5.65" height="4721.54" transform="translate(6394.93 1563.32) rotate(45.01)"/><rect class="cls-44" x="-2200.17" y="-783.37" width="5.65" height="4721.54" transform="translate(4340.46 2885.65) rotate(45)"/><rect class="cls-45" x="736.11" y="921.91" width="5.65" height="4721.54" transform="translate(6406.32 1308.88) rotate(45)"/><rect class="cls-46" x="685.74" y="1187.42" width="5.65" height="4721.54" transform="translate(6578.98 1422.03) rotate(44.99)"/><rect class="cls-47" x="751.76" y="1290.74" width="5.65" height="4721.54" transform="translate(6672.02 1406.05) rotate(45.01)"/><rect class="cls-48" x="1246.88" y="1105.8" width="5.65" height="4721.54" transform="translate(6685.92 1001.55) rotate(45)"/><rect class="cls-49" x="-1641.32" y="-162.35" width="5.65" height="4721.54" transform="translate(4943.26 2672.35) rotate(45)"/><rect class="cls-50" x="-407.79" y="-1340.97" width="8.16" height="3236.46" transform="translate(3946.47 1236.53) rotate(45)"/><rect class="cls-51" x="-873.7" y="-261.54" width="8.16" height="3236.46" transform="translate(4573.28 1882.17) rotate(45)"/><rect class="cls-52" x="-252.4" y="-473.83" width="8.16" height="3236.46" transform="translate(4605.19 1380.73) rotate(45)"/><rect class="cls-53" x="-673.09" y="355.88" width="8.16" height="3236.46" transform="translate(5068.54 1921) rotate(45)"/><rect class="cls-54" x="52.41" y="39.38" width="8.16" height="3236.46" transform="translate(5057.41 1315.53) rotate(45)"/><rect class="cls-55" x="-55.68" y="556.49" width="8.16" height="3236.46" transform="translate(5391.4 1543.44) rotate(45)"/><rect class="cls-56" x="357.23" y="552.6" width="8.16" height="3236.46" transform="translate(5509.48 1250.22) rotate(45)"/><rect class="cls-57" x="1082.73" y="236.1" width="8.16" height="3236.46" transform="translate(5498.19 644.51) rotate(45)"/><rect class="cls-58" x="1078.84" y="649.01" width="8.16" height="3236.46" transform="translate(5789.01 768.2) rotate(45)"/><rect class="cls-59" x="671.56" y="1488.15" width="8.16" height="3236.46" transform="translate(6262.9 1301.85) rotate(45)"/><rect class="cls-60" x="1383.65" y="1162.22" width="8.16" height="3236.46" transform="translate(6241.39 703.05) rotate(45)"/><rect class="cls-61" x="1796.56" y="1158.33" width="8.16" height="3236.46" transform="translate(6359.6 409.92) rotate(45)"/><rect class="cls-62" x="-1440.9" y="-748.66" width="8.16" height="3236.46" transform="translate(4062.68 2140.66) rotate(45)"/><rect class="cls-63" x="-628.5" y="-1241.36" width="8.16" height="3236.46" transform="translate(2536.21 1071.76) rotate(-135)"/><rect class="cls-64" x="-731.55" y="-952.98" width="8.16" height="3236.46" transform="translate(2156.38 1491.21) rotate(-135)"/><rect class="cls-65" x="-1009.35" y="-397.18" width="8.16" height="3236.46" transform="translate(1289.14 2243.5) rotate(-135)"/><rect class="cls-66" x="-350.5" y="-963.37" width="8.16" height="3236.46" transform="translate(2814.22 1742.85) rotate(-135)"/><rect class="cls-67" x="-579.4" y="-645.15" width="8.16" height="3236.46" transform="translate(2198.47 2124.29) rotate(-135)"/><rect class="cls-68" x="-654.63" y="-334.91" width="8.16" height="3236.46" transform="translate(1850.69 2600.73) rotate(-135)"/><rect class="cls-69" x="-914.08" y="63.54" width="8.16" height="3236.46" transform="translate(1126 3097.38) rotate(-135)"/><rect class="cls-70" x="-532.63" y="-51.27" width="8.16" height="3236.46" transform="translate(1858.36 3171.11) rotate(-135)"/><rect class="cls-71" x="-72.04" y="-369.54" width="8.16" height="3236.46" transform="translate(2869.63 2953.41) rotate(-135)"/><rect class="cls-72" x="-379.09" y="171.43" width="8.16" height="3236.46" transform="translate(1963.01 3659.87) rotate(-135)"/><rect class="cls-73" x="-289.2" y="261.32" width="8.16" height="3236.46" transform="translate(2052.96 3876.96) rotate(-135)"/><rect class="cls-74" x="390.82" y="-222.05" width="8.16" height="3236.46" transform="translate(3555.54 3532.56) rotate(-135)"/><rect class="cls-75" x="-66.44" y="327.88" width="8.16" height="3236.46" transform="translate(2385.99 4147.9) rotate(-135)"/><rect class="cls-76" x="857.85" y="1252.17" width="8.16" height="3236.46" transform="translate(3310.2 6379.35) rotate(-135)"/><rect class="cls-77" x="451.91" y="323.99" width="8.16" height="3236.46" transform="translate(3273.73 4507.89) rotate(-135)"/><rect class="cls-78" x="897.47" y="50.84" width="8.16" height="3236.46" transform="translate(4227.51 4356.66) rotate(-135)"/><rect class="cls-79" x="527.94" y="586.53" width="8.16" height="3236.46" transform="translate(3217.73 5009.75) rotate(-135)"/><rect class="cls-80" x="832.55" y="393.76" width="8.16" height="3236.46" transform="translate(3874.17 4896.15) rotate(-135)"/><rect class="cls-81" x="788.19" y="660.26" width="8.16" height="3236.46" transform="translate(3610.16 5319.81) rotate(-135)"/><rect class="cls-82" x="1081.01" y="564.64" width="8.16" height="3236.46" transform="translate(4177.52 5363.55) rotate(-135)"/><rect class="cls-83" x="871.44" y="930.03" width="8.16" height="3236.46" transform="translate(3561.37 5839.13) rotate(-135)"/><rect class="cls-84" x="892.98" y="1125.65" width="8.16" height="3236.46" transform="translate(3459.64 6188.22) rotate(-135)"/><rect class="cls-85" x="1103.82" y="1237.54" width="8.16" height="3236.46" transform="translate(3740.61 6528.39) rotate(-135)"/><rect class="cls-86" x="1326.65" y="1130.59" width="8.16" height="3236.46" transform="translate(4196.68 6503.38) rotate(-135)"/><rect class="cls-87" x="1665.74" y="1052.87" width="8.16" height="3236.46" transform="translate(4830.73 6610.54) rotate(-135)"/><rect class="cls-88" x="1520.63" y="1716" width="8.16" height="3236.46" transform="translate(4113.85 7639.92) rotate(-135)"/><rect class="cls-89" x="1493.53" y="1365.61" width="8.16" height="3236.46" transform="translate(4315.57 7022.66) rotate(-135)"/><rect class="cls-90" x="1980.39" y="1047.21" width="8.16" height="3236.46" transform="translate(5371.58 6823.31) rotate(-135)"/></g></g></svg>